<svg width="24.491333" height="26.135010" viewBox="0 0 24.4913 26.135" fill="none" xmlns="http://www.w3.org/2000/svg" xmlns:xlink="http://www.w3.org/1999/xlink">
	<desc>
			Created with Pixso.
	</desc>
	<defs/>
	<path id="Vector" d="M12.24 26.13C15.21 26.13 18.08 25.06 20.31 23.1C22.54 21.15 23.99 18.45 24.38 15.51C24.77 12.56 24.08 9.58 22.44 7.11C20.79 4.64 18.31 2.85 15.44 2.08C15.51 1.83 15.52 1.58 15.48 1.33C15.43 1.08 15.33 0.85 15.18 0.64C15.02 0.44 14.83 0.28 14.6 0.17C14.37 0.05 14.13 -0.01 13.87 0L10.61 0C10.36 -0.01 10.11 0.05 9.88 0.17C9.65 0.28 9.46 0.44 9.3 0.64C9.15 0.85 9.05 1.08 9 1.33C8.96 1.58 8.97 1.83 9.04 2.08C6.17 2.85 3.69 4.64 2.05 7.11C0.4 9.58 -0.29 12.56 0.1 15.51C0.49 18.45 1.94 21.15 4.17 23.1C6.41 25.06 9.27 26.13 12.24 26.13ZM22.85 13.89C22.85 16.7 21.73 19.4 19.74 21.39C17.75 23.38 15.05 24.5 12.24 24.5C9.43 24.5 6.73 23.38 4.74 21.39C2.75 19.4 1.63 16.7 1.63 13.89C1.63 11.08 2.75 8.38 4.74 6.39C6.73 4.4 9.43 3.28 12.24 3.28C15.05 3.28 17.75 4.4 19.74 6.39C21.73 8.38 22.85 11.08 22.85 13.89Z" fill="#5F502A" fill-opacity="1.000000" fill-rule="nonzero"/>
	<path id="Vector" d="M10.51 12.13L18.59 7.52L13.97 15.59L5.89 20.21L10.51 12.13Z" fill="#5F502A" fill-opacity="1.000000" fill-rule="nonzero"/>
</svg>
