<svg width="16.002014" height="16.001953" viewBox="0 0 16.002 16.002" fill="none" xmlns="http://www.w3.org/2000/svg" xmlns:xlink="http://www.w3.org/1999/xlink">
	<desc>
			Created with Pixso.
	</desc>
	<defs/>
	<path id="Vector" d="M16 8.05C16 3.6 12.42 0 8 0C3.58 0 0 3.6 0 8.05C0 12.06 2.92 15.39 6.75 16L6.75 10.37L4.71 10.37L4.71 8.05L6.75 8.05L6.75 6.27C6.75 4.25 7.94 3.14 9.77 3.14C10.65 3.14 11.56 3.3 11.56 3.3L11.56 5.28L10.55 5.28C9.56 5.28 9.25 5.9 9.25 6.54L9.25 8.05L11.47 8.05L11.11 10.37L9.25 10.37L9.25 16C13.07 15.39 16 12.06 16 8.05Z" fill="#5E4C1E" fill-opacity="1.000000" fill-rule="nonzero"/>
</svg>
