<svg width="16.000000" height="16.000000" viewBox="0 0 16 16" fill="none" xmlns="http://www.w3.org/2000/svg" xmlns:xlink="http://www.w3.org/1999/xlink">
	<desc>
			Created with Pixso.
	</desc>
	<defs/>
	<path id="Vector" d="M8 0C5.82 0 5.55 0.01 4.7 0.04C3.84 0.08 3.26 0.22 2.76 0.42C2.22 0.62 1.74 0.93 1.34 1.34C0.93 1.74 0.62 2.22 0.41 2.76C0.22 3.26 0.08 3.84 0.04 4.69C0.01 5.55 0 5.82 0 8C0 10.17 0.01 10.44 0.04 11.29C0.08 12.15 0.22 12.73 0.41 13.24C0.62 13.76 0.89 14.21 1.34 14.65C1.78 15.1 2.23 15.37 2.75 15.58C3.26 15.77 3.84 15.91 4.7 15.95C5.55 15.99 5.82 16 8 16C10.17 16 10.44 15.99 11.29 15.95C12.14 15.91 12.73 15.77 13.24 15.58C13.77 15.37 14.25 15.06 14.65 14.65C15.1 14.21 15.37 13.76 15.58 13.24C15.77 12.73 15.91 12.15 15.95 11.29C15.99 10.44 16 10.17 16 8C16 5.82 15.99 5.55 15.95 4.7C15.91 3.84 15.77 3.26 15.58 2.76C15.37 2.22 15.06 1.74 14.65 1.34C14.25 0.93 13.77 0.62 13.24 0.42C12.73 0.22 12.14 0.08 11.29 0.04C10.44 0.01 10.17 0 7.99 0L8 0ZM7.28 1.44L8 1.44C10.13 1.44 10.39 1.44 11.23 1.48C12.01 1.52 12.43 1.65 12.71 1.76C13.09 1.9 13.35 2.08 13.63 2.36C13.91 2.64 14.09 2.9 14.23 3.28C14.34 3.56 14.47 3.98 14.51 4.76C14.55 5.6 14.55 5.86 14.55 7.99C14.55 10.13 14.55 10.38 14.51 11.23C14.47 12.01 14.34 12.43 14.23 12.71C14.1 13.06 13.9 13.37 13.63 13.63C13.35 13.91 13.09 14.08 12.71 14.23C12.43 14.34 12.01 14.47 11.23 14.5C10.39 14.54 10.13 14.55 8 14.55C5.86 14.55 5.61 14.54 4.76 14.5C3.98 14.47 3.56 14.34 3.28 14.23C2.93 14.1 2.62 13.89 2.36 13.63C2.09 13.37 1.89 13.06 1.76 12.71C1.65 12.43 1.52 12 1.48 11.22C1.45 10.38 1.44 10.13 1.44 7.99C1.44 5.85 1.45 5.6 1.48 4.76C1.52 3.98 1.65 3.56 1.76 3.27C1.9 2.9 2.08 2.63 2.36 2.35C2.64 2.07 2.9 1.9 3.28 1.76C3.56 1.65 3.98 1.52 4.76 1.48C5.5 1.45 5.79 1.44 7.28 1.43L7.28 1.44ZM12.27 2.77C12.14 2.77 12.02 2.79 11.9 2.84C11.78 2.89 11.68 2.96 11.59 3.05C11.5 3.14 11.43 3.24 11.38 3.36C11.33 3.47 11.31 3.6 11.31 3.72C11.31 3.85 11.33 3.98 11.38 4.09C11.43 4.21 11.5 4.31 11.59 4.4C11.68 4.49 11.78 4.56 11.9 4.61C12.02 4.66 12.14 4.68 12.27 4.68C12.52 4.68 12.76 4.58 12.94 4.4C13.12 4.22 13.23 3.98 13.23 3.72C13.23 3.47 13.12 3.23 12.94 3.05C12.76 2.87 12.52 2.77 12.27 2.77ZM8 3.89C7.45 3.88 6.91 3.98 6.4 4.18C5.9 4.38 5.44 4.69 5.05 5.07C4.66 5.45 4.35 5.91 4.14 6.41C3.93 6.91 3.82 7.45 3.82 8C3.82 8.54 3.93 9.08 4.14 9.58C4.35 10.09 4.66 10.54 5.05 10.92C5.44 11.31 5.9 11.61 6.4 11.81C6.91 12.01 7.45 12.11 8 12.1C9.07 12.09 10.1 11.65 10.86 10.88C11.62 10.11 12.04 9.07 12.04 8C12.04 6.92 11.62 5.88 10.86 5.11C10.1 4.34 9.07 3.9 8 3.89ZM8 5.33C8.35 5.33 8.69 5.4 9.02 5.53C9.34 5.67 9.63 5.86 9.88 6.11C10.13 6.36 10.33 6.65 10.46 6.97C10.59 7.3 10.66 7.64 10.66 8C10.66 8.35 10.59 8.69 10.46 9.02C10.33 9.34 10.13 9.63 9.88 9.88C9.63 10.13 9.34 10.33 9.02 10.46C8.69 10.59 8.35 10.66 8 10.66C7.29 10.66 6.61 10.38 6.11 9.88C5.61 9.38 5.33 8.7 5.33 8C5.33 7.29 5.61 6.61 6.11 6.11C6.61 5.61 7.29 5.33 8 5.33Z" fill="#5E4C1E" fill-opacity="1.000000" fill-rule="nonzero"/>
</svg>
