<svg width="69.000000" height="65.539673" viewBox="0 0 69 65.5397" fill="none" xmlns="http://www.w3.org/2000/svg" xmlns:xlink="http://www.w3.org/1999/xlink">
	<desc>
			Created with Pixso.
	</desc>
	<defs/>
	<path id="Vector" d="M68.53 32.32L69 31.94L69 15.92C64.32 12.07 59.74 8.11 55.08 4.26L51.42 7.16L48.23 4.53L40.53 10.66L35.43 6.46L33.94 7.68L33.94 23.6L34.13 23.6L34.01 23.74L40.38 28.99L40.5 28.86L40.61 29L48.2 22.97L55.76 29.21L33.15 47.19L12.62 30.29L27.55 18.42L28.06 18.84L28.06 19.13L29.64 17.88L29.64 1.7L27.58 0L27.56 0C18.37 7.31 9.18 14.61 0 21.92L0 38.1C11.07 47.25 22.16 56.39 33.24 65.53C45.01 56.19 56.77 46.84 68.53 37.48L68.53 32.32ZM28.43 2.86L29.28 2.18L29.28 17.71L28.43 18.39L28.43 2.86ZM12.47 29.95L2.89 22.03L27.36 2.57L27.36 18.1L12.47 29.95ZM27.74 2.58L28.06 2.85L28.06 18.37L27.74 18.1L27.74 2.58ZM54.86 11.99L51.68 9.37L54.86 6.85L54.86 11.99ZM62.75 18.51L55.23 12.3L55.24 12.29L55.24 6.86L66.11 15.83L62.75 18.51ZM40.67 12.96L48.02 7.12L48.02 22.65L40.67 28.49L40.67 12.96ZM48.39 7.13L51.2 9.45L51.2 24.97L48.39 22.65L48.39 7.13ZM34.3 8.01L40.31 12.96L40.31 28.48L34.3 23.53L34.3 8.01ZM56.88 28.33L56.06 28.99L51.58 25.29L51.58 9.77L56.88 14.14L56.88 28.33ZM62.57 23.81L57.26 28.03L57.26 14.46L62.57 18.83L62.57 23.81ZM65.45 18.76L68.62 16.23L68.62 31.76L68.52 31.84L68.52 21.3L65.45 18.76ZM65.63 21.37L62.93 23.52L62.93 19.13L65.63 21.37ZM68.16 21.77L68.16 37.3L33.43 64.92L33.43 49.38L68.16 21.77ZM5.76 29.07L5.76 42.38L0.37 37.93L0.37 22.41L33.05 49.38L33.05 64.91L12.41 47.87L12.41 34.28L5.98 28.78L5.77 29.03L5.76 29.02L5.76 29.04L5.75 29.06L5.76 29.07ZM52.74 43.4L65.2 33.63L65.08 25.82L52.74 35.64L52.74 43.4ZM63.81 32.56L62.93 33.27L62.93 28.01L63.81 27.3L63.81 32.56ZM62.56 33.57L62.07 33.95L58.83 31.28L62.56 28.31L62.56 33.57ZM6.97 34.36L6.97 30.12L9.52 32.29L6.97 34.36ZM55.75 39.21L53.11 41.31L53.11 35.82L58.54 31.5L61.93 34.3L55.75 39.21ZM6.97 41.65L6.97 34.84L9.81 32.53L12.05 34.45L12.05 47.56L5.9 42.5L6.97 41.65Z" fill="#FEFEFE" fill-opacity="1.000000" fill-rule="evenodd"/>
</svg>
