<svg width="14.000000" height="16.000000" viewBox="0 0 14 16" fill="none" xmlns="http://www.w3.org/2000/svg" xmlns:xlink="http://www.w3.org/1999/xlink">
	<desc>
			Created with Pixso.
	</desc>
	<defs/>
	<path id="Vector" d="M5.32 6.01C5.05 5.83 4.15 5.21 4.15 5.21C4.91 4.13 5.9 3.71 7.28 3.71C8.26 3.71 9.09 4.03 9.68 4.66C10.27 5.28 10.6 6.16 10.68 7.3C11.01 7.44 11.31 7.6 11.59 7.78C12.7 8.53 13.31 9.64 13.31 10.92C13.31 13.64 11.08 16 7.05 16C3.59 16 0 13.98 0 7.99C0 2.03 3.48 0 7.04 0C8.68 0 12.55 0.24 14 5.03L12.64 5.38C11.51 1.97 9.16 1.43 7 1.43C3.44 1.43 1.42 3.6 1.42 8.21C1.42 12.36 3.67 14.56 7.05 14.56C9.83 14.56 11.9 13.12 11.9 11C11.9 9.56 10.69 8.88 10.63 8.88C10.39 10.11 9.76 12.18 6.98 12.18C5.36 12.18 3.97 11.07 3.97 9.6C3.97 7.51 5.95 6.76 7.52 6.76C8.1 6.76 8.81 6.8 9.18 6.87C9.18 6.23 8.64 5.14 7.28 5.14C6.03 5.14 5.72 5.55 5.32 6.01L5.32 6.01ZM7.71 8.18C5.67 8.18 5.41 9.06 5.41 9.6C5.41 10.48 6.45 10.77 7.01 10.77C8.03 10.77 9.07 10.49 9.24 8.35C8.74 8.23 8.23 8.18 7.71 8.18Z" fill="#5E4C1E" fill-opacity="1.000000" fill-rule="nonzero"/>
</svg>
