<svg width="24.491333" height="27.991577" viewBox="0 0 24.4913 27.9916" fill="none" xmlns="http://www.w3.org/2000/svg" xmlns:xlink="http://www.w3.org/1999/xlink">
	<desc>
			Created with Pixso.
	</desc>
	<defs/>
	<path id="Vector" d="M12.24 27.99C13.17 27.99 14.06 27.62 14.71 26.96C15.37 26.31 15.74 25.42 15.74 24.49L8.74 24.49C8.74 25.42 9.11 26.31 9.77 26.96C10.42 27.62 11.31 27.99 12.24 27.99ZM12.24 3.35L10.85 3.63C9.26 3.96 7.84 4.81 6.82 6.06C5.8 7.31 5.24 8.88 5.24 10.49C5.24 11.59 5.01 14.34 4.44 17.04C4.16 18.38 3.78 19.78 3.28 20.99L21.2 20.99C20.7 19.78 20.32 18.38 20.04 17.04C19.47 14.34 19.24 11.59 19.24 10.49C19.24 8.88 18.68 7.31 17.66 6.06C16.64 4.82 15.22 3.96 13.63 3.64L12.24 3.35ZM23.12 20.99C23.51 21.77 23.96 22.39 24.49 22.74L0 22.74C0.52 22.39 0.97 21.77 1.36 20.99C2.93 17.84 3.49 12.03 3.49 10.49C3.49 6.26 6.5 2.73 10.5 1.92C10.48 1.68 10.5 1.43 10.58 1.2C10.66 0.97 10.78 0.75 10.94 0.57C11.11 0.39 11.31 0.24 11.53 0.15C11.75 0.05 12 0 12.24 0C12.49 0 12.73 0.05 12.95 0.15C13.17 0.24 13.37 0.39 13.54 0.57C13.7 0.75 13.83 0.97 13.9 1.2C13.98 1.43 14.01 1.68 13.98 1.92C15.96 2.32 17.74 3.39 19.01 4.96C20.29 6.52 20.99 8.47 20.99 10.49C20.99 12.03 21.55 17.84 23.12 20.99Z" fill="#5F502A" fill-opacity="1.000000" fill-rule="nonzero"/>
</svg>
