<svg width="24.491333" height="10.715332" viewBox="0 0 24.4913 10.7153" fill="none" xmlns="http://www.w3.org/2000/svg" xmlns:xlink="http://www.w3.org/1999/xlink">
	<desc>
			Created with Pixso.
	</desc>
	<defs/>
	<path id="Vector" d="M10.71 5.35C10.71 6.07 10.57 6.77 10.29 7.43C10.02 8.09 9.61 8.68 9.1 9.18L15.38 9.18C14.49 8.31 13.93 7.16 13.8 5.93C13.67 4.69 13.97 3.45 14.65 2.41C15.33 1.37 16.35 0.6 17.54 0.24C18.73 -0.13 20 -0.08 21.15 0.39C22.3 0.86 23.25 1.72 23.84 2.81C24.43 3.9 24.63 5.17 24.39 6.38C24.15 7.6 23.49 8.7 22.53 9.49C21.57 10.28 20.37 10.71 19.13 10.71L5.35 10.71C4.29 10.71 3.26 10.4 2.38 9.81C1.5 9.22 0.81 8.38 0.4 7.4C0 6.42 -0.11 5.35 0.1 4.31C0.3 3.27 0.81 2.31 1.56 1.56C2.31 0.81 3.27 0.3 4.31 0.1C5.35 -0.11 6.42 0 7.4 0.4C8.38 0.81 9.22 1.5 9.81 2.38C10.4 3.26 10.71 4.29 10.71 5.35ZM1.53 5.35C1.53 6.37 1.93 7.34 2.65 8.06C3.36 8.78 4.34 9.18 5.35 9.18C6.37 9.18 7.34 8.78 8.06 8.06C8.78 7.34 9.18 6.37 9.18 5.35C9.18 4.34 8.78 3.36 8.06 2.65C7.34 1.93 6.37 1.53 5.35 1.53C4.34 1.53 3.36 1.93 2.65 2.65C1.93 3.36 1.53 4.34 1.53 5.35ZM22.96 5.35C22.96 4.34 22.55 3.36 21.84 2.65C21.12 1.93 20.14 1.53 19.13 1.53C18.11 1.53 17.14 1.93 16.42 2.65C15.71 3.36 15.3 4.34 15.3 5.35C15.3 6.37 15.71 7.34 16.42 8.06C17.14 8.78 18.11 9.18 19.13 9.18C20.14 9.18 21.12 8.78 21.84 8.06C22.55 7.34 22.96 6.37 22.96 5.35Z" fill="#5F502A" fill-opacity="1.000000" fill-rule="nonzero"/>
</svg>
